<svg width="180" height="39" viewBox="0 0 180 39" fill="none" xmlns="http://www.w3.org/2000/svg">
	<path
		d="M172.635 3.0542H19.4528C10.4484 3.0542 2.85972 10.0606 2.46276 19.0519C2.03271 28.665 9.69412 36.5911 19.208 36.5911H164.834C167.057 36.5911 169.016 35.1355 169.651 33.0052L176.909 8.81018C177.775 5.93881 175.625 3.0542 172.635 3.0542Z"
		fill="url(#paint0_linear_4051_470)" />
	<path
		d="M172.635 4.45019C173.614 4.45019 174.514 4.90008 175.103 5.6874C175.691 6.47471 175.863 7.46712 175.579 8.4066L168.321 32.6016C167.858 34.1497 166.455 35.1885 164.841 35.1885H19.208C14.9737 35.1885 11.024 33.5014 8.09965 30.4381C5.17535 27.3749 3.66688 23.3523 3.85213 19.1114C4.03077 15.1418 5.74433 11.4434 8.68186 8.69771C11.6128 5.95866 15.4369 4.45019 19.4462 4.45019H172.635ZM172.635 3.0542H19.4528C10.4484 3.0542 2.85972 10.0606 2.46276 19.0519C2.03271 28.665 9.69412 36.5911 19.208 36.5911H164.834C167.057 36.5911 169.016 35.1355 169.651 33.0052L176.909 8.81018C177.775 5.93881 175.625 3.0542 172.635 3.0542Z"
		fill="#009648" />
	<path
		d="M19.7704 33.7925C27.4875 33.7925 33.7435 27.5365 33.7435 19.8193C33.7435 12.1022 27.4875 5.84619 19.7704 5.84619C12.0532 5.84619 5.79724 12.1022 5.79724 19.8193C5.79724 27.5365 12.0532 33.7925 19.7704 33.7925Z"
		fill="white" />
	<path
		d="M19.7704 31.2784C26.099 31.2784 31.2294 26.148 31.2294 19.8194C31.2294 13.4907 26.099 8.36035 19.7704 8.36035C13.4417 8.36035 8.31134 13.4907 8.31134 19.8194C8.31134 26.148 13.4417 31.2784 19.7704 31.2784Z"
		fill="#E02126" />
	<path
		d="M19.6315 20.097C23.7202 20.097 27.0349 17.7836 27.0349 14.9298C27.0349 12.0761 23.7202 9.7627 19.6315 9.7627C15.5427 9.7627 12.2281 12.0761 12.2281 14.9298C12.2281 17.7836 15.5427 20.097 19.6315 20.097Z"
		fill="url(#paint1_linear_4051_470)" />
	<path
		d="M64.2039 18.2844V21.3609C64.2039 23.6765 66.0829 25.5555 68.3985 25.5555H69.2387C71.5544 25.5555 73.4333 23.6765 73.4333 21.3609V18.2844C73.4333 15.9688 71.5544 14.0898 69.2387 14.0898H68.3985C66.0829 14.0965 64.2039 15.9688 64.2039 18.2844ZM69.9334 23.4582H67.6972C66.8503 23.4582 66.1623 22.7701 66.1623 21.9233V17.7287C66.1623 16.8818 66.8503 16.1938 67.6972 16.1938H69.9334C70.7803 16.1938 71.4684 16.8818 71.4684 17.7287V21.9233C71.4684 22.7701 70.7803 23.4582 69.9334 23.4582Z"
		fill="white" />
	<path
		d="M42.1261 25.5489V14.9301C42.1261 14.0832 42.8142 13.3951 43.661 13.3951H47.4322C48.2791 13.3951 48.9671 14.0832 48.9671 14.9301V25.5489H50.9255V15.4924C50.9255 13.1768 49.0465 11.2979 46.7309 11.2979H44.3557C42.0401 11.2979 40.1611 13.1768 40.1611 15.4924V25.5555H42.1261V25.5489Z"
		fill="white" />
	<path
		d="M121.909 11.2979C119.594 11.2979 117.715 13.1768 117.715 15.4924V21.9233C117.715 22.7701 117.027 23.4582 116.18 23.4582H116.041V25.5158C118.092 25.2445 119.673 23.4847 119.673 21.3609V14.9301C119.673 14.0832 120.361 13.3951 121.208 13.3951H125.681V25.5489H127.639V11.2979H121.909Z"
		fill="white" />
	<path
		d="M58.1965 14.0967H57.3563C55.0406 14.0967 53.1617 15.9756 53.1617 18.2913V28.3543H55.12V25.1786L58.1965 25.5623C60.5121 25.5623 62.3911 23.6834 62.3911 21.3677V18.2913C62.3845 15.969 60.5121 14.0967 58.1965 14.0967ZM60.4327 21.9169C60.4327 22.7637 59.7447 23.4518 58.8978 23.4518L55.1267 23.0615V17.7223C55.1267 16.8754 55.8147 16.1874 56.6616 16.1874H58.8978C59.7447 16.1874 60.4327 16.8754 60.4327 17.7223V21.9169Z"
		fill="white" />
	<path
		d="M84.4623 14.0964H83.6221C83.4302 14.0964 83.245 14.1096 83.0663 14.1361V13.1172H81.108V14.1361C80.9227 14.1096 80.7375 14.0964 80.5522 14.0964H79.712C77.3964 14.0964 75.5174 15.9753 75.5174 18.291V21.3674C75.5174 23.6831 77.3964 25.562 79.712 25.562C79.712 25.562 80.9293 25.2709 81.108 25.2444V27.9372H83.0663V25.2444C83.2516 25.2709 84.4623 25.562 84.4623 25.562C86.7779 25.562 88.6569 23.6831 88.6569 21.3674V18.291C88.6569 15.9687 86.7779 14.0964 84.4623 14.0964ZM81.108 23.1736L79.0107 23.4515C78.1638 23.4515 77.4758 22.7634 77.4758 21.9166V17.722C77.4758 16.8751 78.1638 16.187 79.0107 16.187H81.108V23.1736ZM86.6986 21.9166C86.6986 22.7634 86.0105 23.4515 85.1636 23.4515L83.0663 23.1736V16.187H85.1636C86.0105 16.187 86.6986 16.8751 86.6986 17.722V21.9166Z"
		fill="white" />
	<path d="M111.291 14.0967H101.79V16.1874H105.561V25.5491H107.519V16.1874H111.291V14.0967Z"
		fill="white" />
	<path
		d="M99.8381 22.1948V14.0967H97.8797V21.9235C97.8797 22.7703 97.1917 23.4584 96.3448 23.4584H94.1086C93.2617 23.4584 92.5737 22.7703 92.5737 21.9235V14.0967H90.6153V21.3611C90.6153 23.6768 92.4943 25.5557 94.8099 25.5557H95.6501C96.8146 25.5557 97.8731 25.0794 98.634 24.3119C99.2493 25.0727 100.189 25.5557 101.241 25.5557V23.5974C100.46 23.5974 99.8381 22.9688 99.8381 22.1948Z"
		fill="white" />
	<path
		d="M138.959 22.1948V14.0967H137.001V21.9235C137.001 22.7703 136.312 23.4584 135.466 23.4584H133.229C132.383 23.4584 131.694 22.7703 131.694 21.9235V14.0967H129.736V21.3611C129.736 23.6768 131.615 25.5557 133.931 25.5557H134.771C135.935 25.5557 136.994 25.0794 137.755 24.3119C138.37 25.0727 139.31 25.5557 140.361 25.5557V23.5974C139.587 23.5974 138.959 22.9688 138.959 22.1948Z"
		fill="white" />
	<path
		d="M146.223 14.0967C143.908 14.0967 142.029 15.9756 142.029 18.2913V25.5557H143.987V17.7289C143.987 16.882 144.675 16.194 145.522 16.194H149.856V14.0967H146.223Z"
		fill="white" />
	<path
		d="M159.502 22.7569V18.2844C159.502 15.9688 157.623 14.0898 155.307 14.0898H152.231V16.1871H156.002C156.849 16.1871 157.537 16.8752 157.537 17.7221V18.1984C156.406 18.0529 154.725 17.861 153.693 17.861C151.576 17.861 149.849 19.5878 149.849 21.7049C149.849 23.7956 151.523 25.4827 153.66 25.5489C153.693 25.5489 153.733 25.5489 153.766 25.5489C155.248 25.5489 156.67 24.6359 157.716 23.7295C158.112 24.788 159.131 25.5489 160.329 25.5489V23.5971C159.879 23.5971 159.502 23.22 159.502 22.7569ZM153.779 23.5971C153.766 23.5971 153.746 23.5971 153.733 23.5971C152.661 23.5641 151.821 22.737 151.821 21.7116C151.821 20.6728 152.667 19.826 153.706 19.826C154.705 19.826 156.472 20.0377 157.55 20.1766V21.1558C156.763 22.0357 155.109 23.5971 153.779 23.5971Z"
		fill="white" />
	<defs>
		<linearGradient id="paint0_linear_4051_470" x1="89.7754" y1="3.61339" x2="89.7754" y2="36.5897"
			gradientUnits="userSpaceOnUse">
			<stop stop-color="#72B544" />
			<stop offset="1" stop-color="#009648" />
		</linearGradient>
		<linearGradient id="paint1_linear_4051_470" x1="19.63" y1="20.1014" x2="19.63" y2="9.76131"
			gradientUnits="userSpaceOnUse">
			<stop stop-color="#EB7823" stop-opacity="0" />
			<stop offset="1" stop-color="#EB7823" />
		</linearGradient>
	</defs>
</svg>